<svg xmlns="http://www.w3.org/2000/svg" viewBox="0 0 24 24" aria-hidden="true">
  <path fill="currentColor" d="M12 2C6.48 2 2 6.58 2 12.26c0 4.52 2.87 8.35 6.84 9.7.5.1.68-.22.68-.48 0-.24-.01-.87-.01-1.7-2.78.62-3.37-1.39-3.37-1.39-.46-1.2-1.11-1.52-1.11-1.52-.9-.64.07-.63.07-.63 1 .07 1.53 1.05 1.53 1.05.9 1.58 2.36 1.12 2.94.86.1-.67.35-1.12.64-1.38-2.22-.26-4.56-1.14-4.56-5.08 0-1.12.39-2.04 1.03-2.76-.1-.26-.45-1.3.1-2.7 0 0 .85-.28 2.78 1.05.8-.23 1.66-.35 2.52-.35s1.72.12 2.52.35c1.93-1.33 2.78-1.05 2.78-1.05.55 1.4.2 2.44.1 2.7.64.72 1.03 1.64 1.03 2.76 0 3.95-2.34 4.82-4.57 5.07.36.31.69.92.69 1.86 0 1.34-.01 2.42-.01 2.75 0 .26.18.58.69.48A10.14 10.14 0 0 0 22 12.26C22 6.58 17.52 2 12 2z"/>
</svg>
